<svg width="64" height="64" viewBox="0 0 64 64" fill="none" xmlns="http://www.w3.org/2000/svg">
  <defs>
    <linearGradient id="g" x1="8" y1="6" x2="58" y2="60" gradientUnits="userSpaceOnUse">
      <stop stop-color="#E4C77D"/>
      <stop offset="0.52" stop-color="#C9A86A"/>
      <stop offset="1" stop-color="#A67C3B"/>
    </linearGradient>
    <linearGradient id="w" x1="14" y1="10" x2="52" y2="56" gradientUnits="userSpaceOnUse">
      <stop stop-color="#8F5B54"/>
      <stop offset="1" stop-color="#5A3A36"/>
    </linearGradient>
  </defs>
  <rect x="3" y="3" width="58" height="58" rx="17" fill="#F8F5F0"/>
  <rect x="4.5" y="4.5" width="55" height="55" rx="15.5" stroke="url(#g)" stroke-width="3"/>
  <path d="M32 9C39.6 20.7 47.3 28.3 57 32C47.3 35.7 39.6 43.3 32 55C24.4 43.3 16.7 35.7 7 32C16.7 28.3 24.4 20.7 32 9Z" fill="url(#w)"/>
  <path d="M32 19C36.8 26.2 41.7 30.6 48 32C41.7 33.4 36.8 37.8 32 45C27.2 37.8 22.3 33.4 16 32C22.3 30.6 27.2 26.2 32 19Z" fill="#F8F5F0"/>
  <path d="M32 19L42.8 51H36L32 37.4L28 51H21.2L32 19Z" fill="url(#g)"/>
</svg>
